<svg width="400" height="300" xmlns="http://www.w3.org/2000/svg">
 <g>
  <title>Layer 1</title>
  <rect id="svg_6" height="300" width="400" y="0" x="0" stroke-width="0" stroke="#fff" fill="#a00201"/>
  <path fill="url(#svg_34)" stroke="#fff" d="m56.82999,142.97612l0,0c0,-79.03808 69.78472,-125.11112 138.00001,-143.11112l0,0c36.59986,0 71.70072,15.07773 97.58072,41.91627c25.88003,26.83855 40.41929,63.23941 40.41929,101.19485l0,0c0,79.03807 -61.78472,143.11112 -138.00001,143.11112l0,0c-76.21528,0 -138.00001,-64.07305 -138.00001,-143.11112zm53,-1l-1,1c0,39.51903 48.89238,83.55556 87,83.55556c38.10766,0 88,-42.03653 88,-81.55556c0,-39.51903 -50.89237,-92.55556 -89,-92.55556l-1,-1c-38.10763,0 -84,51.03654 -84,90.55556z" id="svg_1"/>
  <g stroke-width="0" id="svg_2" fill="#000" stroke="#fff">
   <path id="svg_3" d="m199.99541,-1c-79.96361,0 -144.80294,64.83016 -144.80294,144.8121c0,79.96361 64.83016,144.80294 144.80294,144.80294s144.8121,-64.83016 144.8121,-144.80294s-64.83932,-144.8121 -144.8121,-144.8121zm70.89454,144.8121c0,39.15276 -31.73261,70.89454 -70.89454,70.89454c-39.15276,0 -70.88537,-31.74177 -70.88537,-70.89454c0,-39.16193 31.73261,-70.89454 70.88537,-70.89454c39.16193,0 70.89454,31.73261 70.89454,70.89454zm36.58777,37.43972c4.5895,-1.80465 15.81134,0.54048 15.81134,0.54048s-6.59569,9.37138 -11.21268,11.1852c-3.56351,1.41075 -7.7133,1.21837 -10.00347,-0.46719c-1.48403,3.13295 -3.05967,6.13766 -4.78188,9.05076c0.37559,-0.09161 0.75118,-0.19237 1.12676,-0.2565c4.82768,-0.94355 15.44491,3.46274 15.44491,3.46274s-8.24462,7.97896 -13.09978,8.89502c-3.81084,0.73285 -7.86903,-0.28398 -9.80193,-2.4001c-2.07948,2.84897 -4.25972,5.56054 -6.60485,8.19881c0.33895,-0.01832 0.63209,-0.07329 0.95271,-0.07329c4.94677,0.05496 14.48304,6.40332 14.48304,6.40332s-9.59124,6.21094 -14.57465,6.19262c-3.79252,-0.01832 -7.58505,-1.72221 -9.12404,-4.09483c-2.23521,2.07031 -4.53454,4.02154 -6.898,5.89948c0.20154,0.02748 0.43971,-0.02748 0.63209,-0.00916c4.90097,0.58628 13.61278,7.99728 13.61278,7.99728s-10.25081,5.08418 -15.15177,4.47957c-4.03986,-0.513 -7.84155,-2.92226 -8.82174,-5.67962c-1.9329,1.19089 -3.79252,2.43674 -5.75291,3.49022c4.82768,2.04283 11.39589,8.41867 11.39589,8.41867s-10.59891,4.36049 -15.46323,3.38945c-3.88413,-0.7695 -7.43848,-3.32533 -8.3179,-6.09186c-5.872,2.33597 -11.97301,4.14979 -18.2206,5.48725c-0.85194,11.93637 -10.69968,21.39936 -22.84675,21.39936c-12.15623,0 -21.9948,-9.46299 -22.84675,-21.39936c-6.27507,-1.33746 -12.37608,-3.16044 -18.2206,-5.48725c-0.88859,2.76653 -4.42461,5.32236 -8.32706,6.09186c-4.87348,0.95271 -15.46323,-3.38945 -15.46323,-3.38945s6.56821,-6.37584 11.39589,-8.41867c-1.95123,-1.05348 -3.81084,-2.29933 -5.74375,-3.49022c-0.96187,2.75737 -4.74523,5.16663 -8.8309,5.67962c-4.90097,0.58628 -15.16093,-4.4979 -15.16093,-4.4979s8.70265,-7.41099 13.62194,-7.99728c0.22902,-0.01832 0.42139,0.03664 0.63209,0.00916c-2.39094,-1.86878 -4.67195,-3.82917 -6.898,-5.89948c-1.55732,2.37262 -5.33152,4.0765 -9.1332,4.09483c-4.94677,0.01832 -14.56549,-6.19262 -14.56549,-6.19262s9.53627,-6.34835 14.47388,-6.40332c0.3023,0 0.61377,0.05496 0.95271,0.07329c-2.33597,-2.61996 -4.51622,-5.34984 -6.60485,-8.19881c-1.92374,2.0978 -5.98193,3.13295 -9.78361,2.4001c-4.85516,-0.91607 -13.09978,-8.89502 -13.09978,-8.89502s10.58975,-4.38797 15.44491,-3.46274c0.36643,0.06412 0.73285,0.17405 1.10844,0.2565c-1.73137,-2.9131 -3.29785,-5.9178 -4.77272,-9.05076c-2.29017,1.68557 -6.43996,1.87794 -10.01263,0.46719c-4.60782,-1.80465 -11.19436,-11.1852 -11.19436,-11.1852s11.20352,-2.34514 15.81134,-0.54048c0.36643,0.17405 0.67789,0.43055 1.05348,0.58628c-1.09012,-3.07799 -1.99703,-6.20178 -2.82149,-9.35306c-2.51003,1.01684 -6.27507,0.65957 -9.36222,-0.99851c-4.35133,-2.34514 -9.80193,-12.40357 -9.80193,-12.40357s11.39589,-1.01684 15.7747,1.33746c0.42139,0.21986 0.76034,0.57712 1.16341,0.84278c-0.60461,-4.04902 -0.96187,-8.16217 -1.14509,-12.36692c-2.7024,0.72369 -6.67814,-0.513 -9.50879,-3.03219c-3.70092,-3.2612 -6.6873,-14.32731 -6.6873,-14.32731s11.33177,1.63976 15.06016,4.92845c0.42139,0.38475 0.7695,0.89775 1.16341,1.3741c0.2565,-4.36965 0.8153,-8.6202 1.54816,-12.8158c-2.79401,0.01832 -6.27507,-2.0978 -8.46447,-5.1483c-2.86729,-4.0307 -3.27036,-15.4724 -3.27036,-15.4724s10.66304,4.15895 13.54865,8.19881c0.3023,0.39391 0.46719,0.90691 0.70537,1.35578c0.91607,-3.30701 2.04283,-6.53157 3.24288,-9.71033c-2.76653,-0.45803 -5.86284,-3.20624 -7.42015,-6.67814c-2.05199,-4.50706 -0.22902,-15.82966 -0.22902,-15.82966s9.68284,6.14682 11.69819,10.66304c0.22902,0.50384 0.31146,1.04432 0.47636,1.5848c1.72221,-3.39861 3.62763,-6.66898 5.64298,-9.86606c-2.52835,-1.06264 -4.92845,-4.14063 -5.88116,-7.64917c-1.30998,-4.76356 2.22605,-15.65561 2.22605,-15.65561s8.59272,7.55756 9.89354,12.35776c0.15573,0.58628 0.15573,1.22753 0.24734,1.85962c2.6566,-3.37113 5.45977,-6.62317 8.49195,-9.66452c-2.31765,-1.53899 -4.02154,-5.17579 -4.14979,-8.89502c-0.20154,-4.91929 5.75291,-14.73954 5.75291,-14.73954s6.63234,9.35306 6.82471,14.29067c0,0.56796 0,1.13592 -0.07329,1.71305c2.48255,-2.06115 5.02922,-4.02154 7.68581,-5.85368c0.72369,-2.43674 2.68408,-5.04754 5.34068,-6.66898c4.2414,-2.53751 15.67393,-2.08864 15.67393,-2.08864s-4.93761,10.32409 -9.16068,12.8616c-1.86878,1.1176 -4.00322,1.70389 -5.97277,1.83214c-2.04283,1.40158 -4.00322,2.81233 -5.93612,4.29636c5.13914,0.5588 13.60362,5.6613 13.60362,5.6613s-9.33474,6.6415 -14.27235,6.81555c-3.78336,0.13741 -7.61253,-1.38326 -9.27977,-3.64595c-2.02451,2.04283 -3.95742,4.19559 -5.8262,6.40332c5.20327,-0.513 14.35479,2.42758 14.35479,2.42758s-7.59421,8.59272 -12.3486,9.89354c-3.76504,0.99851 -7.83239,0.32062 -9.9485,-1.60312c-1.49319,2.32681 -2.90394,4.71775 -4.23224,7.19114c4.92845,-1.51151 14.91359,0.06412 14.91359,0.06412s-6.15598,9.65536 -10.6722,11.67987c-3.32533,1.50235 -7.31939,1.56648 -9.73781,0.21986c-0.8153,2.12528 -1.56648,4.25056 -2.22605,6.43996c4.47957,-2.47338 14.72122,-2.88562 14.72122,-2.88562s-4.17727,10.69052 -8.20797,13.54865c-3.03219,2.1436 -7.00792,2.99554 -9.6462,2.0978c-0.49468,2.85813 -0.88859,5.76207 -1.14509,8.68433c4.01238,-3.30701 13.41124,-5.86284 13.41124,-5.86284s-1.63976,11.35009 -4.91929,15.02352c-2.42758,2.74821 -6.02773,4.47041 -8.79426,4.21391c0.09161,2.94974 0.3023,5.86284 0.62293,8.74845c2.92226,-4.2414 11.95469,-9.16068 11.95469,-9.16068s0.99851,11.41421 -1.33746,15.74722c-1.85962,3.5177 -5.34068,6.02773 -8.23546,6.06437c0.65041,2.57415 1.3283,5.13914 2.1436,7.60337c2.06115,-4.59866 11.01114,-10.91037 11.01114,-10.91037s2.37262,11.20352 0.513,15.83882c-1.3283,3.38029 -4.09483,6.1743 -6.74226,6.92548c1.08096,2.27185 2.20772,4.5437 3.4261,6.70562c1.16341,-4.846 8.79426,-12.76999 8.79426,-12.76999s4.38797,10.56227 3.45358,15.41743c-0.65957,3.54518 -2.83065,6.78807 -5.23075,8.07056c1.55732,2.12528 3.19708,4.2414 4.91013,6.24759c0.09161,-4.97425 6.18346,-14.42808 6.18346,-14.42808s6.35751,9.53627 6.385,14.50136c0.03664,3.64595 -1.51151,7.31939 -3.69176,8.99579c1.90542,1.72221 3.86581,3.43526 5.89032,5.02922c-0.00916,-0.10993 -0.0458,-0.19237 -0.0458,-0.26566c-0.61377,-4.91013 4.47957,-15.18841 4.47957,-15.18841s7.39267,8.73929 7.97896,13.6311c0.43971,3.39861 -0.52216,6.82471 -2.27185,8.85838c2.51003,1.51151 5.0567,2.94974 7.67665,4.25972c-0.21986,-0.69621 -0.49468,-1.41075 -0.63209,-2.1436c-0.95271,-4.86432 3.39861,-15.46323 3.39861,-15.46323s8.00644,8.20797 8.94999,13.05398c0.65041,3.32533 -0.06412,6.82471 -1.64892,8.96831c4.62615,1.72221 9.40802,3.07799 14.29067,4.15895c2.85813,-9.45383 11.55162,-16.36098 21.93068,-16.36098c10.38822,0 19.07254,6.90716 21.93984,16.36098c4.88264,-1.08096 9.68284,-2.45506 14.30899,-4.15895c-1.62144,-2.1436 -2.33597,-5.64298 -1.67641,-8.96831c0.95271,-4.846 8.96831,-13.05398 8.96831,-13.05398s4.35133,10.59891 3.37113,15.46323c-0.12825,0.73285 -0.39391,1.44739 -0.63209,2.1436c2.62912,-1.30998 5.17579,-2.74821 7.67665,-4.25972c-1.72221,-2.03367 -2.7024,-5.45977 -2.27185,-8.85838c0.61377,-4.89181 7.99728,-13.6311 7.99728,-13.6311s5.1025,10.27829 4.48874,15.18841c-0.01832,0.09161 -0.05496,0.18321 -0.06412,0.26566c2.03367,-1.59396 4.00322,-3.29785 5.9178,-5.02922c-2.19856,-1.69473 -3.73756,-5.34984 -3.71008,-8.99579c0.02748,-4.96509 6.35751,-14.50136 6.35751,-14.50136s6.13766,9.45383 6.21094,14.42808c1.73137,-2.00619 3.34365,-4.10399 4.94677,-6.24759c-2.4459,-1.2825 -4.60782,-4.52538 -5.26739,-8.07056c-0.95271,-4.82768 3.46274,-15.41743 3.46274,-15.41743s7.64917,7.91483 8.79426,12.76999c1.23669,-2.16192 2.33597,-4.43377 3.41694,-6.70562c-2.6566,-0.75118 -5.41396,-3.54518 -6.74226,-6.92548c-1.8413,-4.63531 0.50384,-15.83882 0.50384,-15.83882s8.96831,6.31171 11.03862,10.91037c0.82446,-2.47338 1.50235,-5.02922 2.11612,-7.60337c-2.88562,-0.03664 -6.35751,-2.54667 -8.21713,-6.06437c-2.36346,-4.333 -1.33746,-15.74722 -1.33746,-15.74722s9.05992,4.91929 11.97301,9.16068c0.32062,-2.88562 0.52216,-5.79871 0.61377,-8.74845c-2.76653,0.24734 -6.33919,-1.46571 -8.7851,-4.21391c-3.29785,-3.66427 -4.93761,-15.02352 -4.93761,-15.02352s9.42634,2.54667 13.42956,5.86284c-0.24734,-2.92226 -0.65957,-5.83536 -1.16341,-8.68433c-2.64744,0.89775 -6.59569,0.0458 -9.65536,-2.0978c-4.03986,-2.85813 -8.22629,-13.54865 -8.22629,-13.54865s10.25081,0.42139 14.7487,2.88562c-0.68705,-2.1894 -1.41991,-4.31468 -2.24437,-6.43996c-2.42758,1.33746 -6.40332,1.2825 -9.73781,-0.21986c-4.50706,-2.03367 -10.65388,-11.67987 -10.65388,-11.67987s9.96682,-1.57564 14.89527,-0.06412c-1.33746,-2.48255 -2.74821,-4.86432 -4.2414,-7.19114c-2.0978,1.92374 -6.20178,2.60163 -9.93934,1.60312c-4.76356,-1.30998 -12.36692,-9.89354 -12.36692,-9.89354s9.16068,-2.94058 14.34563,-2.42758c-1.85962,-2.20772 -3.78336,-4.36965 -5.81703,-6.40332c-1.66724,2.26269 -5.52389,3.78336 -9.28893,3.64595c-4.95593,-0.18321 -14.27235,-6.81555 -14.27235,-6.81555s8.48279,-5.11166 13.62194,-5.6613c-1.95123,-1.48403 -3.90245,-2.89478 -5.93612,-4.2872c-1.99703,-0.13741 -4.10399,-0.71453 -5.98193,-1.83214c-4.20475,-2.53751 -9.16068,-12.8616 -9.16068,-12.8616s11.41421,-0.45803 15.67393,2.08864c2.66576,1.62144 4.63531,4.23224 5.34984,6.66898c2.64744,1.82298 5.18495,3.79252 7.67665,5.85368c-0.05496,-0.57712 -0.09161,-1.14509 -0.07329,-1.71305c0.20154,-4.93761 6.83387,-14.29067 6.83387,-14.29067s5.93612,9.81109 5.76207,14.73038c-0.14657,3.71924 -1.8413,7.35603 -4.16811,8.91335c3.02303,3.03219 5.83536,6.28423 8.50111,9.65536c0.09161,-0.63209 0.09161,-1.27334 0.22902,-1.85962c1.33746,-4.79104 9.89354,-12.35776 9.89354,-12.35776s3.56351,10.89205 2.23521,15.65561c-0.95271,3.50854 -3.38029,6.58653 -5.90864,7.64001c2.05199,3.19708 3.94825,6.46744 5.67046,9.87522c0.15573,-0.54048 0.21986,-1.08096 0.48552,-1.5848c1.99703,-4.51622 11.67987,-10.66304 11.67987,-10.66304s1.78633,11.32261 -0.23818,15.82966c-1.54816,3.4719 -4.62615,6.2201 -7.42015,6.67814c1.21837,3.17876 2.34514,6.39416 3.2612,9.71033c0.23818,-0.45803 0.40307,-0.96187 0.71453,-1.35578c2.86729,-4.0307 13.52117,-8.19881 13.52117,-8.19881s-0.39391,11.44169 -3.25204,15.4724c-2.16192,3.04135 -5.64298,5.15747 -8.44615,5.1483c0.73285,4.19559 1.29166,8.45531 1.53899,12.8158c0.39391,-0.48552 0.73285,-0.98935 1.18173,-1.3741c3.70092,-3.28869 15.03268,-4.92845 15.03268,-4.92845s-2.94974,11.06611 -6.67814,14.32731c-2.84897,2.51919 -6.76975,3.75588 -9.49963,3.03219c-0.17405,4.20475 -0.5588,8.30874 -1.14509,12.37608c0.39391,-0.24734 0.75118,-0.62293 1.16341,-0.85194c4.36049,-2.3543 15.7747,-1.33746 15.7747,-1.33746s-5.42313,10.06759 -9.79277,12.40357c-3.13295,1.68557 -6.87051,2.02451 -9.37138,0.99851c-0.82446,3.1696 -1.74053,6.29339 -2.83065,9.35306c0.33895,-0.15573 0.65957,-0.42139 1.026,-0.57712l0.00004,0z" fill="#a00201" stroke="#fff"/>
  </g>
  <text font-weight="bold" transform="matrix(2.62525, 0, 0, 2.62525, -205.854, -158.775)" xml:space="preserve" text-anchor="start" font-family="'Vollkorn'" font-size="24" id="svg_5" y="124.29165" x="122.4245" stroke-width="0" stroke="#fff" fill="#ffff60">SPQR</text>
 </g>
 <defs>
  <linearGradient id="svg_34" x1="0" y1="1" x2="0" y2="0">
   <stop stop-color="#ffff00" offset="0"/>
   <stop stop-color="#ffff96" stop-opacity="0.99219" offset="0.42578"/>
   <stop stop-color="#ffff77" stop-opacity="0.98828" offset="0.60938"/>
   <stop stop-color="#ffff00" stop-opacity="0.99609" offset="1"/>
   <stop stop-color="0" stop-opacity="0" offset="NaN"/>
   <stop stop-color="0" stop-opacity="0" offset="NaN"/>
   <stop stop-color="0" stop-opacity="0" offset="NaN"/>
   <stop stop-color="0" stop-opacity="0" offset="NaN"/>
   <stop stop-color="0" stop-opacity="0" offset="NaN"/>
   <stop stop-color="0" stop-opacity="0" offset="NaN"/>
   <stop stop-color="0" stop-opacity="0" offset="NaN"/>
   <stop stop-color="0" stop-opacity="0" offset="NaN"/>
   <stop stop-color="0" stop-opacity="0" offset="NaN"/>
   <stop stop-color="0" stop-opacity="0" offset="NaN"/>
   <stop stop-color="0" stop-opacity="0" offset="NaN"/>
   <stop stop-color="0" stop-opacity="0" offset="NaN"/>
   <stop stop-color="0" stop-opacity="0" offset="NaN"/>
   <stop stop-color="0" stop-opacity="0" offset="NaN"/>
   <stop stop-color="0" stop-opacity="0" offset="NaN"/>
   <stop stop-color="0" stop-opacity="0" offset="NaN"/>
   <stop stop-color="0" stop-opacity="0" offset="NaN"/>
   <stop stop-color="0" stop-opacity="0" offset="NaN"/>
   <stop stop-color="0" stop-opacity="0" offset="NaN"/>
   <stop stop-color="0" stop-opacity="0" offset="NaN"/>
   <stop stop-color="0" stop-opacity="0" offset="NaN"/>
   <stop stop-color="0" stop-opacity="0" offset="NaN"/>
  </linearGradient>
 </defs>
</svg>